<svg id="Layer_1" xmlns="http://www.w3.org/2000/svg" viewBox="0 0 369.5 153"><style/><g class="page-header__logo-borodinski"><path transform="rotate(135.008 5.719 73.277)" fill="#FFF" d="M1.675 69.236h8.084v8.084H1.675z"/><path transform="rotate(135.008 357.717 73.267)" fill="#FFF" d="M353.675 69.236h8.084v8.084h-8.084z"/><g fill="#636466"><path d="M46.799 73.48h2.083v-8.324h3.275v-2.084h-5.358zm14.892 1.529V62.324c0-1.795-1.067-3.325-2.563-4.069.298.602.48 1.27.48 1.986v12.686a4.473 4.473 0 0 1-1.662 3.511c.924.985 1.662 2.094 1.662 3.694v14.104c0 2.463-2.094 4.557-4.557 4.557h-13.56v2.084h15.643c2.463 0 4.557-2.094 4.557-4.557V82.215c0-1.602-.738-2.709-1.662-3.695a4.472 4.472 0 0 0 1.662-3.511z"/><path d="M46.799 91.34h2.083v-8.385h3.275v-2.084h-5.358z"/></g><g fill="#636466"><path d="M79.81 91.34h2.083V65.156h3.275v-2.084H79.81z"/><path d="M92.139 58.254c.298.602.48 1.27.48 1.986v33.994c0 2.463-2.094 4.557-4.557 4.557H76.978a4.484 4.484 0 0 1-1.987-.48c.744 1.496 2.274 2.564 4.07 2.564h11.085c2.463 0 4.557-2.094 4.557-4.557V62.324c-.001-1.795-1.068-3.325-2.564-4.07z"/></g><path d="M112.82 73.48h2.083v-8.324h3.276v-2.084h-5.359zm12.245 9.043a4.469 4.469 0 0 0 2.586-4.064V62.324a4.557 4.557 0 0 0-2.566-4.098c.299.609.483 1.286.483 2.014v16.135a4.466 4.466 0 0 1-2.586 4.064l3.079 18.352h-5.658l.351 2.084h7.391l-3.08-18.352zm-9.412-1.652h-2.833v17.92h-5.306v2.084h7.389v-17.92h1.101z" fill="#636466"/><g fill="#636466"><path d="M144.848 91.34h2.083V65.156h3.275v-2.084h-5.358z"/><path d="M157.177 58.254c.298.602.48 1.27.48 1.986v33.994c0 2.463-2.094 4.557-4.557 4.557h-11.086a4.475 4.475 0 0 1-1.985-.48c.743 1.496 2.273 2.564 4.068 2.564h11.086c2.463 0 4.557-2.094 4.557-4.557V62.324c0-1.795-1.067-3.325-2.563-4.07z"/></g><g fill="#636466"><path d="M177.858 91.34h2.083V65.156h3.276v-2.084h-5.359z"/><path d="M190.188 58.254c.298.602.48 1.27.48 1.986v33.994c0 2.463-2.094 4.557-4.557 4.557h-13.56v2.084h15.643c2.463 0 4.557-2.094 4.557-4.557V62.324c0-1.795-1.067-3.325-2.563-4.07z"/></g><path fill="#636466" d="M211.239 57.766v41.025h-5.306v2.084h7.389V57.766zm32.887 0v41.025h-5.906l.599 2.084h7.39V57.766zm-12.81 22.181v18.844h-5.306v2.084h7.389V87.189z"/><g fill="#636466"><path d="M263.578 82.955h6.107v-2.084h-8.19a4.519 4.519 0 0 1-1.998-.477 4.532 4.532 0 0 0 4.081 2.561zm2.832 2.77l-2.083.486v5.129h2.083zm10.246-27.471c.298.602.48 1.27.48 1.986v8.744l-5.368 1.243v2.565l7.451-1.725v-8.744c.001-1.794-1.067-3.324-2.563-4.069z"/><path d="M276.656 76.052c.298.602.48 1.269.48 1.985v16.197c0 2.463-2.094 4.557-4.557 4.557h-11.085a4.484 4.484 0 0 1-1.987-.48c.744 1.496 2.274 2.564 4.07 2.564h11.085c2.463 0 4.557-2.094 4.557-4.557V80.121c.001-1.795-1.066-3.325-2.563-4.069zm-12.329-12.98V73.48h2.083v-8.324h3.276v-2.084z"/></g><path d="M298.017 80.871h-.678v17.92h-5.307v2.084h7.39V85.352zm15.138-23.105h-2.752l-6.228 19.41 6.897 21.615h-6.006l.577 1.838.061.246h7.451l-6.897-21.615zm17.38 0v41.025h-5.306v2.084h7.389V57.766z" fill="#636466"/><path transform="rotate(-45.009 365.55 81.146)" fill="#636466" d="M361.533 79.663h8.084v2.947h-8.084z"/><path transform="rotate(-45.001 13.575 81.137)" fill="#636466" d="M9.533 79.663h8.085v2.947H9.533z"/><path d="M55.649 68.967a4.473 4.473 0 0 1-1.662 3.511c.924.985 1.662 2.094 1.662 3.694v14.103c0 2.463-2.094 4.557-4.557 4.557H35.45V51.724h15.643c2.463 0 4.557 2.032 4.557 4.558v12.685zm-7.451-9.853H42.84v10.408h5.358V59.114zm0 17.798H42.84v10.469h5.358V76.912zm35.906-25.188c2.463 0 4.557 2.032 4.557 4.558v33.994c0 2.463-2.094 4.557-4.557 4.557H73.019c-2.525 0-4.558-2.094-4.558-4.557V56.282a4.548 4.548 0 0 1 4.558-4.558h11.085zm-2.895 7.39h-5.358v28.267h5.358V59.114zm33.503 35.718l-3.018-17.92h-2.833v17.92h-7.39V51.724h15.643c2.463 0 4.495 2.032 4.495 4.558v16.135a4.466 4.466 0 0 1-2.586 4.064l3.079 18.351h-7.39zm-.492-35.718h-5.358v10.408h5.358V59.114zm34.922-7.39c2.463 0 4.557 2.032 4.557 4.558v33.994c0 2.463-2.094 4.557-4.557 4.557h-11.086c-2.524 0-4.557-2.094-4.557-4.557V56.282a4.547 4.547 0 0 1 4.557-4.558h11.086zm-2.895 7.39h-5.358v28.267h5.358V59.114zm35.905-7.39c2.463 0 4.557 2.032 4.557 4.558v33.994c0 2.463-2.094 4.557-4.557 4.557H166.51V51.724h15.642zm-2.894 7.39H173.9v28.267h5.358V59.114zm20.633-7.39h7.39v43.108h-7.39V51.724zm40.276 0v43.108h-7.39l-5.42-18.843v18.843h-7.39V51.724h7.328l5.42 17.675V51.724h7.452zm28.454 17.798c2.463 0 4.557 2.032 4.557 4.557v16.197c0 2.463-2.094 4.557-4.557 4.557h-11.085c-2.525 0-4.558-2.094-4.558-4.557v-8.867l7.39-1.725v7.697h5.358V76.912h-8.19a4.548 4.548 0 0 1-4.558-4.558V56.282a4.548 4.548 0 0 1 4.558-4.558h11.085c2.463 0 4.557 2.032 4.557 4.558v8.744l-7.451 1.725v-7.637h-5.358v10.408h8.252zm31.595 3.695l6.897 21.615h-7.451l-.062-.246-5.543-17.674h-.678v17.92h-7.39V51.724h7.39v17.798h.555l5.666-17.798h7.513l-6.897 21.493zm18.971-21.493h7.39v43.108h-7.39V51.724z" fill="#FFF"/></g></svg>