<svg xmlns="http://www.w3.org/2000/svg"><symbol id="beard-1" viewBox="0 0 51.5 49.5"><path d="M50.9 0h-.2c-2.3 7.7-2.9 17.1-9.4 20.6-1.2-3.4-4.1-4.9-7.4-6.4-2.1-.9-4.5-2.6-6.6-2.6-.5 0-1 0-1.5.3-.5-.3-1-.3-1.5-.3-2.1.1-4.5 1.7-6.6 2.6-3.3 1.5-6.3 3-7.4 6.4C3.8 17.1 3.2 7.7.9 0H.6C.3.7.2 1.6 0 2.4c0 1.9.5 21.5 1.9 28.4C3.2 37.2 8 41.7 12.7 44.7c3.3 2.1 8.5 4.8 13 4.8s9.7-2.8 13-4.8c4.7-3 9.6-7.5 10.8-13.8 1.4-7 1.9-26.5 1.9-28.4-.1-.9-.2-1.8-.5-2.5zM37 28.1c-.2 1.6-1.7 3.4-3.4 3.5-3 .2-4.5-4.4-7.9-4.4-3.4 0-4.9 4.5-7.9 4.4-1.7-.1-3.1-1.9-3.4-3.5-.3-1.9.6-4.6 1.7-5.6 1.1-1.1 2.8-.9 4.7-1.2 2-.3 3.8-.9 4.9-1.9 1.1 1.1 2.8 1.7 4.9 1.9 1.9.3 3.6.1 4.7 1.2 1.1 1 2 3.7 1.7 5.6z"/></symbol><symbol id="beard-2" viewBox="0 0 57.7 68.6"><path d="M51.6 22.2c.1-1.7.5-3.5.7-5.4.7-5.4 1.6-11.7-.1-16.8H52c-1.3 3.7-1.3 8.3-2.2 12.4-.7 3-1.8 5.7-3.2 7.6-.5.7-1.1 1.5-1.9 1.8-.7-3.9-4.3-4.9-7.7-6.4-2.1-.9-4-2-6.1-2.2-.8-.1-1.5.2-2 .2s-1.2-.3-2-.2c-2.1.1-4 1.3-6.1 2.2-3.4 1.4-7 2.4-7.7 6.4-.9-.3-1.4-1.1-1.9-1.8-1.5-1.9-2.6-4.6-3.2-7.6C7 8.3 7 3.7 5.7 0h-.2c-1.7 5.1-.8 11.4-.1 16.8.2 1.9.6 3.7.7 5.4.8 11.1-7 23.1-6 28.9.9 7.5 8.4 9.4 14.2 12.4 4.3 2.2 8.3 5 13.3 5.2h2.6c5-.2 9-2.9 13.3-5.2 5.8-3 13.2-4.8 14.2-12.4.9-5.8-6.9-17.8-6.1-28.9zm-22.8 3.7c-2.5 0-5.1-.1-7.2-.5.7-2.1 4-1.6 7.1-1.6h.2c3 0 6.4-.5 7.1 1.6-2.1.5-4.6.6-7.2.5z"/></symbol><symbol id="beard-3" viewBox="0 0 62.4 78.5"><path d="M62.4 42c0-5.2-2.4-7.8-3.6-10-.9-1.6-4-10.8-4.2-17.6C54.5 9.5 52.9 2 51.7 0c-.9 0-1.5 7.8-2.3 11.6-1.4 7-3.8 8.9-4.4 9-.8-2.8-4.1-7.4-13.7-7.7h-.1-.1c-9.6.4-12.9 4.9-13.7 7.7-.7-.1-3-2-4.4-9C12.2 7.8 11.5 0 10.7 0 9.5 2 7.9 9.5 7.8 14.4c-.2 6.9-3.3 16-4.2 17.6C2.4 34.2 0 36.8 0 42c0 3.7 5.2 7.2 5.6 11.4.1 1.2 0 2.3.1 3.4 2 17.5 17.9 21.7 25.4 21.7 7.6 0 23.4-4.2 25.4-21.7.2-1 0-2.1.1-3.4.6-4.2 5.8-7.7 5.8-11.4zM33.2 26.8c-.7-.1-3.4-.1-4.1 0-1.7.3-5.8 1-5.8-1.1 0-1.1 6.7-2.3 7.8-2.3 1.1 0 7.8 1.2 7.8 2.3.1 2-3.9 1.4-5.7 1.1z"/></symbol><symbol id="beard-4" viewBox="0 0 57 97.7"><path d="M51.1 15.2c-.4-5.4-.6-10.8-2.5-15.2-.8 0-1.5 7.3-2.3 10.9-1.5 7.1-3.7 8.3-4.4 8.3-.9-3.9-4.4-4.2-7.8-5.9-1.2-.6-2.3-1.1-3.6-1.2-.7-.1-1.3.1-2 .1s-1.3-.2-2-.1c-1.3.1-2.4.6-3.6 1.2-3.4 1.6-6.9 2-7.8 5.9-.7 0-3-1.1-4.4-8.3C9.9 7.3 9.2 0 8.4 0 6.5 4.4 6.3 9.8 5.9 15.2 5 38.8 0 51.5 0 62.4c0 26.1 11.7 35.3 28.5 35.3S57 88.5 57 62.4c0-10.9-5-23.6-5.9-47.2zM34.4 25c-2.8 1.2-5.4-.7-5.9-.7h-.1-.1c-.5 0-3.1 1.9-5.9.7-.8-3.6 2.4-4 5.9-3.9 3.7-.2 6.9.3 6.1 3.9z"/></symbol><symbol id="beard-5" viewBox="0 0 44.7 104.8"><path d="M43.4 0h-.1c-2.8 21.5-5.4 22.6-7 22.7-1.4.1-3.6-1.8-4.9-2.5-1.5-.9-4.1-2.5-9.1-2.5s-7.6 1.7-9.1 2.5c-1.3.7-3.5 2.6-4.9 2.5-1.6-.1-4.1-1.2-7-22.7h-.1C-.9 12.2-.4 50.2 2.4 63.6 5 82.1 12.5 98.7 15.8 103.2c.7 1 3.5 1.6 6.4 1.6 2.9 0 5.7-.5 6.4-1.6 3.3-4.5 10.8-21.1 13.4-39.6 2.9-13.4 3.5-51.4 1.4-63.6zM22.3 28.2c-3.4 0-6.7.2-10.1.5 1.1-1.8 9-3.2 10.1-3.4 1.1.2 9 1.7 10.1 3.4-3.4-.4-6.7-.5-10.1-.5z"/></symbol><symbol id="clock" viewBox="0 0 141.7 139.5"><path d="M71.8 21.5V1c0-.6-.4-1-1-1s-1 .4-1 1v20.5h1c.4-.1.7 0 1 0zM45.8 28.4c.6-.3 1.1-.7 1.7-1L37.3 9.7c-.3-.5-.9-.6-1.4-.4-.5.3-.6.9-.4 1.4l10.3 17.7zM10.5 34.7c-.3.5-.1 1.1.4 1.4l17.7 10.3c.3-.6.7-1.2 1-1.7L11.9 34.4c-.5-.3-1.1-.2-1.4.3zM106.4 8.5c-.5-.3-1.1-.1-1.4.4L94.2 27.5c.6.3 1.2.7 1.7 1l10.8-18.6c.4-.5.2-1.1-.3-1.4zM131.8 35.7c.5-.3.6-.9.4-1.4-.3-.5-.9-.6-1.4-.4l-18.6 10.8c.3.6.7 1.1 1 1.7l18.6-10.7zM22.5 69.8v-1H1c-.6 0-1 .4-1 1s.4 1 1 1h21.5v-1zM140.7 68.8h-21.5v2h21.5c.6 0 1-.4 1-1s-.5-1-1-1zM130.8 103.4l-17.7-10.3c-.3.6-.7 1.2-1 1.7l17.7 10.3c.2.1.3.1.5.1.3 0 .7-.2.9-.5.2-.4.1-1-.4-1.3zM9.9 103.9c-.5.3-.6.9-.4 1.4.2.3.5.5.9.5.2 0 .3 0 .5-.1l18.6-10.8c-.3-.6-.7-1.1-1-1.7L9.9 103.9zM95.9 111.1c-.6.3-1.1.7-1.7 1l10.2 17.7c.2.3.5.5.9.5.2 0 .3 0 .5-.1.5-.3.6-.9.4-1.4l-10.3-17.7zM34.9 129.7c-.3.5-.1 1.1.4 1.4.2.1.3.1.5.1.3 0 .7-.2.9-.5l10.8-18.6c-.6-.3-1.2-.7-1.7-1l-10.9 18.6zM69.8 118.1v20.5c0 .6.4 1 1 1s1-.4 1-1v-20.5h-2zM104.7 51.9c.7-.4 1-1.3.5-2-.4-.7-1.3-1-2-.5L74.8 65.7c-1-1-2.4-1.6-4-1.6-1.5 0-2.9.6-4 1.6L46.5 53.9c-.7-.4-1.6-.2-2.1.5-.4.7-.2 1.6.5 2.1l20.3 11.8c-.1.5-.2.9-.2 1.4 0 3.1 2.5 5.7 5.7 5.7 3.1 0 5.7-2.5 5.7-5.7 0-.5-.1-1-.2-1.4l28.5-16.4zM75.3 66.3zm.4.6zm-9.7 0c-.1 0-.1 0 0 0-.1 0-.1 0 0 0zm.4-.6s-.1 0 0 0c-.1 0 0 0 0 0zm4.4 6.1c-1.5 0-2.7-1.2-2.7-2.7s1.2-2.7 2.7-2.7c1.5 0 2.7 1.2 2.7 2.7s-1.2 2.7-2.7 2.7z"/></symbol><symbol id="icon-beard" viewBox="0 0 22.1 21.2"><path fill="#010101" d="M21.8 0h-.1c-1 3.3-1.3 7.3-4 8.8-.5-1.4-1.8-2.1-3.2-2.7-.9-.4-1.9-1.1-2.8-1.1-.2 0-.4 0-.6.1-.3-.1-.5-.1-.7-.1-.9 0-1.9.7-2.8 1.1-1.5.7-2.7 1.3-3.2 2.7-2.8-1.5-3-5.6-4-8.8H.3C.1.3.1.7 0 1c0 .8.2 9.2.8 12.2.5 2.7 2.6 4.6 4.6 5.9 1.4.9 3.6 2.1 5.6 2.1 1.9 0 4.2-1.2 5.6-2.1 2-1.3 4.1-3.2 4.6-5.9.6-3 .8-11.4.8-12.2 0-.3-.1-.7-.2-1zm-6 12c-.1.7-.7 1.5-1.4 1.5-1.3.1-1.9-1.9-3.4-1.9-1.4 0-2.1 1.9-3.4 1.9-.7 0-1.3-.8-1.4-1.5-.1-.8.3-2 .7-2.4.5-.5 1.2-.4 2-.5.9-.1 1.7-.4 2.1-.8.5.5 1.2.7 2.1.8.8.1 1.5.1 2 .5.5.5.9 1.6.7 2.4z"/></symbol><symbol id="icon-mustache" viewBox="0 0 45 12.9"><path fill="#010101" d="M22.5 8.2c1.2 1.7 3.6 4.4 8.8 4.7 7.1.3 13.7-5.2 13.7-7.3-2.8 2.5-7.4 2.7-9.9 1.7C31.3 5.8 32 2.8 29.2.9c-1.6-1.1-3.8-1.2-5.7 0-.3.2-.7.5-1 .8-.3-.3-.7-.6-1-.8-1.9-1.2-4.1-1.1-5.7 0-2.8 2-2.1 4.9-5.9 6.4-2.5 1-7.1.8-9.9-1.7 0 2.1 6.5 7.6 13.7 7.3 5.2-.2 7.6-3 8.8-4.7z"/></symbol><symbol id="icon-scissors" viewBox="0 0 23 20"><path d="M8.5 4c0-2.2-1.8-4-4-4s-4 1.8-4 4 1.8 4 4 4c.6 0 1.1-.1 1.6-.4L8.5 10l-2.4 2.4c-.5-.3-1-.4-1.6-.4-2.2 0-4 1.8-4 4s1.8 4 4 4 4-1.8 4-4c0-.6-.1-1.1-.4-1.6l2.4-2.4 7 7h4L8.1 5.6c.3-.5.4-1 .4-1.6zm-4 2c-1.1 0-2-.9-2-2s.9-2 2-2 2 .9 2 2-.9 2-2 2zm0 12c-1.1 0-2-.9-2-2s.9-2 2-2 2 .9 2 2-.9 2-2 2zm6-8.5c.3 0 .5.2.5.5s-.2.5-.5.5-.5-.2-.5-.5.2-.5.5-.5zm11-8.5h-4l-6 6 2 2 8-8z"/></symbol></svg>